<?xml version="1.0" encoding="utf-8"?>
<!-- Generator: Adobe Illustrator 17.0.0, SVG Export Plug-In . SVG Version: 6.00 Build 0)  -->
<!DOCTYPE svg PUBLIC "-//W3C//DTD SVG 1.1//EN" "http://www.w3.org/Graphics/SVG/1.1/DTD/svg11.dtd">
<svg version="1.1" xmlns="http://www.w3.org/2000/svg" xmlns:xlink="http://www.w3.org/1999/xlink" x="0px" y="0px" width="60px"
	 height="60px" viewBox="0 0 60 60" enable-background="new 0 0 60 60" xml:space="preserve">
<g id="Layer_1">
</g>
<g id="menu_2__x28_smaller_x29_">
	<path d="M57.5,50.625c0,3.797-2.052,6.875-4.583,6.875H7.083c-2.531,0-4.583-3.078-4.583-6.875l0,0
		c0-3.797,2.052-6.875,4.583-6.875h45.833C55.448,43.75,57.5,46.828,57.5,50.625L57.5,50.625z"/>
	<path d="M57.5,9.375c0,3.797-2.052,6.875-4.583,6.875H7.083c-2.531,0-4.583-3.078-4.583-6.875l0,0C2.5,5.578,4.552,2.5,7.083,2.5
		h45.833C55.448,2.5,57.5,5.578,57.5,9.375L57.5,9.375z"/>
	<path d="M57.5,30.458c0,3.797-2.052,6.875-4.583,6.875H7.083c-2.531,0-4.583-3.078-4.583-6.875l0,0
		c0-3.797,2.052-6.875,4.583-6.875h45.833C55.448,23.583,57.5,26.661,57.5,30.458L57.5,30.458z"/>
</g>
</svg>
