<?xml version="1.0" encoding="utf-8"?>
<!-- Generator: Adobe Illustrator 19.2.1, SVG Export Plug-In . SVG Version: 6.00 Build 0)  -->
<svg version="1.1" id="helm_color" xmlns="http://www.w3.org/2000/svg" xmlns:xlink="http://www.w3.org/1999/xlink" x="0px" y="0px"
	 viewBox="0 0 60 60" enable-background="new 0 0 60 60" xml:space="preserve">
<path fill="#BBBDBF" d="M30.553,29.29h0.02c-0.007-0.041-0.005-0.084-0.01-0.126C30.558,29.206,30.56,29.249,30.553,29.29z"/>
<path fill="#754C28" d="M30,0.827c-14.146,0-25.614,15.067-25.614,33.653v24.694h21.313V33.822c-1.277,0.436-2.742,0.685-4.3,0.685
	c-4.956,0-8.974-2.508-8.974-5.603s4.018-5.603,8.974-5.603c4.721,0,8.582,2.277,8.939,5.168c0.357-2.89,4.218-5.168,8.939-5.168
	c4.956,0,8.974,2.508,8.974,5.603s-4.018,5.603-8.974,5.603c-2.008,0-3.856-0.417-5.352-1.113v25.78h21.688V34.479
	C55.614,15.893,44.146,0.827,30,0.827z"/>
</svg>
