<?xml version="1.0" encoding="utf-8"?>
<!-- Generator: Adobe Illustrator 17.0.0, SVG Export Plug-In . SVG Version: 6.00 Build 0)  -->
<!DOCTYPE svg PUBLIC "-//W3C//DTD SVG 1.1//EN" "http://www.w3.org/Graphics/SVG/1.1/DTD/svg11.dtd">
<svg version="1.1" xmlns="http://www.w3.org/2000/svg" xmlns:xlink="http://www.w3.org/1999/xlink" x="0px" y="0px" width="60px"
	 height="60px" viewBox="0 0 60 60" enable-background="new 0 0 60 60" xml:space="preserve">
<g id="Layer_1">
</g>
<g id="plus">
	<path d="M30,0c4.142,0,7.5,2.239,7.5,5v50c0,2.761-3.358,5-7.5,5l0,0c-4.142,0-7.5-2.239-7.5-5V5C22.5,2.239,25.858,0,30,0L30,0z"
		/>
	<path d="M60,30.5c0,4.142-2.239,7.5-5,7.5H5c-2.761,0-5-3.358-5-7.5l0,0C0,26.358,2.239,23,5,23h50C57.761,23,60,26.358,60,30.5
		L60,30.5z"/>
</g>
</svg>
