<?xml version="1.0" encoding="utf-8"?>
<!-- Generator: Adobe Illustrator 17.0.0, SVG Export Plug-In . SVG Version: 6.00 Build 0)  -->
<!DOCTYPE svg PUBLIC "-//W3C//DTD SVG 1.1//EN" "http://www.w3.org/Graphics/SVG/1.1/DTD/svg11.dtd">
<svg version="1.1" xmlns="http://www.w3.org/2000/svg" xmlns:xlink="http://www.w3.org/1999/xlink" x="0px" y="0px" width="60px"
	 height="60px" viewBox="0 0 60 60" enable-background="new 0 0 60 60" xml:space="preserve">
<g id="Layer_1">
</g>
<g id="pause">
	<path fill="#FFFFFF" d="M20,50c0,5.523-4.477,10-10,10l0,0C4.477,60,0,55.523,0,50V10C0,4.477,4.477,0,10,0l0,0
		c5.523,0,10,4.477,10,10V50z"/>
	<path fill="#FFFFFF" d="M60,50c0,5.523-4.477,10-10,10l0,0c-5.523,0-10-4.477-10-10V10c0-5.523,4.477-10,10-10l0,0
		c5.523,0,10,4.477,10,10V50z"/>
</g>
</svg>
