<?xml version="1.0" encoding="utf-8"?>
<!-- Generator: Adobe Illustrator 17.0.0, SVG Export Plug-In . SVG Version: 6.00 Build 0)  -->
<!DOCTYPE svg PUBLIC "-//W3C//DTD SVG 1.1//EN" "http://www.w3.org/Graphics/SVG/1.1/DTD/svg11.dtd">
<svg version="1.1" xmlns="http://www.w3.org/2000/svg" xmlns:xlink="http://www.w3.org/1999/xlink" x="0px" y="0px" width="60px"
	 height="60px" viewBox="0 0 60 60" enable-background="new 0 0 60 60" xml:space="preserve">
<g id="Layer_1">
</g>
<g id="pause" display="none">
	<path display="inline" d="M20,50c0,5.523-4.477,10-10,10l0,0C4.477,60,0,55.523,0,50V10C0,4.477,4.477,0,10,0l0,0
		c5.523,0,10,4.477,10,10V50z"/>
	<path display="inline" d="M60,50c0,5.523-4.477,10-10,10l0,0c-5.523,0-10-4.477-10-10V10c0-5.523,4.477-10,10-10l0,0
		c5.523,0,10,4.477,10,10V50z"/>
</g>
<g id="menu" display="none">
	<path display="inline" d="M60,5c0,2.761-2.239,5-5,5H5c-2.761,0-5-2.239-5-5l0,0c0-2.761,2.239-5,5-5h50C57.761,0,60,2.239,60,5
		L60,5z"/>
	<path display="inline" d="M60,30c0,2.761-2.239,5-5,5H5c-2.761,0-5-2.239-5-5l0,0c0-2.761,2.239-5,5-5h50
		C57.761,25,60,27.239,60,30L60,30z"/>
	<path display="inline" d="M60,55c0,2.761-2.239,5-5,5H5c-2.761,0-5-2.239-5-5l0,0c0-2.761,2.239-5,5-5h50
		C57.761,50,60,52.239,60,55L60,55z"/>
</g>
<g id="heal" display="none">
	<ellipse display="inline" cx="29.969" cy="35" rx="30" ry="25"/>
	<path display="inline" d="M39.969,7.5c0-4.142-3.358-7.5-7.5-7.5h-5c-4.142,0-7.5,3.358-7.5,7.5l0,0c0,4.142,3.358,7.5,7.5,7.5h5
		C36.611,15,39.969,11.642,39.969,7.5L39.969,7.5z"/>
	<path display="inline" d="M44.969,2.5c0,1.381-1.119,2.5-2.5,2.5h-25c-1.381,0-2.5-1.119-2.5-2.5l0,0c0-1.381,1.119-2.5,2.5-2.5h25
		C43.849,0,44.969,1.119,44.969,2.5L44.969,2.5z"/>
	<path display="inline" fill="#6D6E71" d="M29.969,57.646c-6.904,0-25-12.7-25-28.771c0-6.284,5.596-12.895,12.5-12.895
		s12.083,4.551,12.5,8.344c0.417-3.793,5.596-8.344,12.5-8.344s12.5,6.611,12.5,12.895C54.969,44.946,36.872,57.646,29.969,57.646z"
		/>
</g>
<g id="heal_copy" display="none">
	<path display="inline" d="M29.969,10c-16.569,0-30,11.193-30,25s13.431,25,30,25s30-11.193,30-25S46.537,10,29.969,10z
		 M29.969,57.646c-6.904,0-25-12.7-25-28.771c0-6.284,5.596-12.895,12.5-12.895s12.083,4.551,12.5,8.344
		c0.417-3.793,5.596-8.344,12.5-8.344s12.5,6.611,12.5,12.895C54.969,44.946,36.872,57.646,29.969,57.646z"/>
	<path display="inline" d="M39.969,7.5c0-4.142-3.358-7.5-7.5-7.5h-5c-4.142,0-7.5,3.358-7.5,7.5l0,0c0,4.142,3.358,7.5,7.5,7.5h5
		C36.611,15,39.969,11.642,39.969,7.5L39.969,7.5z"/>
	<path display="inline" d="M44.969,2.5c0,1.381-1.119,2.5-2.5,2.5h-25c-1.381,0-2.5-1.119-2.5-2.5l0,0c0-1.381,1.119-2.5,2.5-2.5h25
		C43.849,0,44.969,1.119,44.969,2.5L44.969,2.5z"/>
</g>
<g id="health">
	<path d="M30,55.167c-8.284,0-30-15.24-30-34.526C0,13.1,6.716,5.167,15,5.167s14.5,5.462,15,10.013
		c0.5-4.551,6.716-10.013,15-10.013S60,13.1,60,20.641C60,39.927,38.284,55.167,30,55.167z"/>
</g>
<g id="attack" display="none">
</g>
<g id="defence" display="none">
</g>
</svg>
