<?xml version="1.0" encoding="utf-8"?>
<!-- Generator: Adobe Illustrator 17.0.0, SVG Export Plug-In . SVG Version: 6.00 Build 0)  -->
<!DOCTYPE svg PUBLIC "-//W3C//DTD SVG 1.1//EN" "http://www.w3.org/Graphics/SVG/1.1/DTD/svg11.dtd">
<svg version="1.1" xmlns="http://www.w3.org/2000/svg" xmlns:xlink="http://www.w3.org/1999/xlink" x="0px" y="0px" width="60px"
	 height="60px" viewBox="0 0 60 60" enable-background="new 0 0 60 60" xml:space="preserve">
<g id="Layer_1">
</g>
<g id="trash_white">
	<g>
		<path fill="#FFFFFF" d="M17.096,17.465c-2.511,1.062-4.043,2.445-4.043,3.963c0,3.342,7.373,6.051,16.467,6.051
			c6.993,0,12.954-1.605,15.341-3.864C38.792,23.747,25.064,20.579,17.096,17.465z"/>
		<g>
			<path fill="#FFFFFF" d="M48.832,21.464c-1.011,4.048-37.802-5.142-36.791-9.19S22.108,7.002,32.267,9.54
				S49.843,17.416,48.832,21.464z"/>
			<path fill="#FFFFFF" d="M42.959,14.449c1.381-5.53-2.521-11.268-8.717-12.816c-6.196-1.548-12.338,1.681-13.72,7.211
				c-0.331,1.326,0.715,2.654,2.504,3.834c-0.063-0.316-0.063-0.637,0.018-0.962c1.228-4.918,5.882-7.991,10.394-6.864
				c4.512,1.127,7.173,6.028,5.945,10.946c-0.081,0.325-0.232,0.609-0.436,0.858C41.08,16.456,42.628,15.775,42.959,14.449z"/>
		</g>
		<path fill="#FFFFFF" d="M48.403,23.213h-0.239c-1.382,3.348-9.225,5.916-18.722,5.916s-17.34-2.568-18.722-5.916h-0.239
			l3.558,29.027h-0.017c0,3.129,6.903,5.666,15.419,5.666c8.516,0,15.419-2.537,15.419-5.666h-0.017L48.403,23.213z M16.756,51.362
			h0.014l-2.927-22.492h0.196c1.273,1.087,2.728,1.401,5.751,2.231l2.099,23.782C18.779,54.083,16.756,52.806,16.756,51.362z
			 M32.771,55.595c-1.062,0.1-2.175,0.158-3.329,0.158c-1.154,0-2.266-0.058-3.329-0.158l-2.088-23.663
			c1.687,0.217,3.51,0.337,5.417,0.337c1.906,0,3.73-0.12,5.417-0.337L32.771,55.595z M42.13,51.362
			c0,1.444-2.023,2.721-5.133,3.521l2.099-23.782c3.023-0.829,4.495-1.151,5.751-2.231h0.196l-2.928,22.492H42.13z"/>
	</g>
</g>
</svg>
