<?xml version="1.0" encoding="utf-8"?>
<!-- Generator: Adobe Illustrator 17.0.0, SVG Export Plug-In . SVG Version: 6.00 Build 0)  -->
<!DOCTYPE svg PUBLIC "-//W3C//DTD SVG 1.1//EN" "http://www.w3.org/Graphics/SVG/1.1/DTD/svg11.dtd">
<svg version="1.1" xmlns="http://www.w3.org/2000/svg" xmlns:xlink="http://www.w3.org/1999/xlink" x="0px" y="0px" width="60px"
	 height="60px" viewBox="0 0 60 60" enable-background="new 0 0 60 60" xml:space="preserve">
<g id="Layer_1">
</g>
<g id="menu_3__x28_thinner_x29_">
	<path fill="#FFFFFF" d="M57.5,50.625c0,2.209-2.052,4-4.583,4H7.083c-2.531,0-4.583-1.791-4.583-4l0,0c0-2.209,2.052-4,4.583-4
		h45.833C55.448,46.625,57.5,48.416,57.5,50.625L57.5,50.625z"/>
	<path fill="#FFFFFF" d="M57.5,9.375c0,2.209-2.052,4-4.583,4H7.083c-2.531,0-4.583-1.791-4.583-4l0,0c0-2.209,2.052-4,4.583-4
		h45.833C55.448,5.375,57.5,7.166,57.5,9.375L57.5,9.375z"/>
	<path fill="#FFFFFF" d="M57.5,30.458c0,2.209-2.052,4-4.583,4H7.083c-2.531,0-4.583-1.791-4.583-4l0,0c0-2.209,2.052-4,4.583-4
		h45.833C55.448,26.458,57.5,28.249,57.5,30.458L57.5,30.458z"/>
</g>
</svg>
