<?xml version="1.0" encoding="utf-8"?>
<!-- Generator: Adobe Illustrator 17.0.0, SVG Export Plug-In . SVG Version: 6.00 Build 0)  -->
<!DOCTYPE svg PUBLIC "-//W3C//DTD SVG 1.1//EN" "http://www.w3.org/Graphics/SVG/1.1/DTD/svg11.dtd">
<svg version="1.1" xmlns="http://www.w3.org/2000/svg" xmlns:xlink="http://www.w3.org/1999/xlink" x="0px" y="0px" width="60px"
	 height="60px" viewBox="0 0 60 60" enable-background="new 0 0 60 60" xml:space="preserve">
<g id="Layer_1">
</g>
<g id="pause" display="none">
	<path display="inline" fill="#282829" d="M20,50c0,5.523-4.477,10-10,10l0,0C4.477,60,0,55.523,0,50V10C0,4.477,4.477,0,10,0l0,0
		c5.523,0,10,4.477,10,10V50z"/>
	<path display="inline" fill="#282829" d="M60,50c0,5.523-4.477,10-10,10l0,0c-5.523,0-10-4.477-10-10V10c0-5.523,4.477-10,10-10
		l0,0c5.523,0,10,4.477,10,10V50z"/>
</g>
<g id="menu" display="none">
	<path display="inline" fill="#282829" d="M60,52.5c0,4.142-2.239,7.5-5,7.5H5c-2.761,0-5-3.358-5-7.5l0,0C0,48.358,2.239,45,5,45
		h50C57.761,45,60,48.358,60,52.5L60,52.5z"/>
	<path display="inline" fill="#282829" d="M60,7.5c0,4.142-2.239,7.5-5,7.5H5c-2.761,0-5-3.358-5-7.5l0,0C0,3.358,2.239,0,5,0h50
		C57.761,0,60,3.358,60,7.5L60,7.5z"/>
	<path display="inline" fill="#282829" d="M60,30.5c0,4.142-2.239,7.5-5,7.5H5c-2.761,0-5-3.358-5-7.5l0,0C0,26.358,2.239,23,5,23
		h50C57.761,23,60,26.358,60,30.5L60,30.5z"/>
</g>
<g id="heal_copy_2" display="none">
	<path display="inline" fill="#282829" d="M29.969,10c-16.569,0-30,11.193-30,25s13.431,25,30,25s30-11.193,30-25
		S46.537,10,29.969,10z M30.069,51.271c-5.15,0-18.65-9.474-18.65-21.464c0-4.688,4.175-9.62,9.325-9.62
		c5.15,0,9.014,3.395,9.325,6.225c0.311-2.829,4.175-6.225,9.325-6.225c5.15,0,9.325,4.932,9.325,9.62
		C48.719,41.797,35.219,51.271,30.069,51.271z"/>
	<path display="inline" fill="#282829" d="M39.969,7.5c0-4.142-3.358-7.5-7.5-7.5h-5c-4.142,0-7.5,3.358-7.5,7.5l0,0
		c0,4.142,3.358,7.5,7.5,7.5h5C36.611,15,39.969,11.642,39.969,7.5L39.969,7.5z"/>
	<path display="inline" fill="#282829" d="M44.969,2.5c0,1.381-1.119,2.5-2.5,2.5h-25c-1.381,0-2.5-1.119-2.5-2.5l0,0
		c0-1.381,1.119-2.5,2.5-2.5h25C43.849,0,44.969,1.119,44.969,2.5L44.969,2.5z"/>
</g>
<g id="heal_copy" display="none">
	<ellipse display="inline" fill="#282829" cx="29.969" cy="35" rx="30" ry="25"/>
	<path display="inline" fill="#282829" d="M39.969,7.5c0-4.142-3.358-7.5-7.5-7.5h-5c-4.142,0-7.5,3.358-7.5,7.5l0,0
		c0,4.142,3.358,7.5,7.5,7.5h5C36.611,15,39.969,11.642,39.969,7.5L39.969,7.5z"/>
	<path display="inline" fill="#282829" d="M44.969,2.5c0,1.381-1.119,2.5-2.5,2.5h-25c-1.381,0-2.5-1.119-2.5-2.5l0,0
		c0-1.381,1.119-2.5,2.5-2.5h25C43.849,0,44.969,1.119,44.969,2.5L44.969,2.5z"/>
	<path display="inline" fill="#6D6E71" d="M30.069,51.271c-5.15,0-18.65-9.474-18.65-21.464c0-4.688,4.175-9.62,9.325-9.62
		s9.014,3.395,9.325,6.225c0.311-2.829,4.175-6.225,9.325-6.225s9.325,4.932,9.325,9.62C48.719,41.797,35.219,51.271,30.069,51.271z
		"/>
</g>
<g id="heal_copy_3" display="none">
	<ellipse display="inline" fill="#282829" cx="29.969" cy="38.312" rx="30" ry="21.688"/>
	<path display="inline" fill="#282829" d="M39.969,14.125c0-4.142-3.358-7.5-7.5-7.5h-5c-4.142,0-7.5,3.358-7.5,7.5l0,0
		c0,4.142,3.358,7.5,7.5,7.5h5C36.611,21.625,39.969,18.267,39.969,14.125L39.969,14.125z"/>
	<path display="inline" fill="#282829" d="M42.516,9.125c0,1.381-0.934,2.5-2.086,2.5H19.57c-1.152,0-2.086-1.119-2.086-2.5l0,0
		c0-1.381,0.934-2.5,2.086-2.5H40.43C41.582,6.625,42.516,7.744,42.516,9.125L42.516,9.125z"/>
	<path display="inline" fill="#6D6E71" d="M29.969,52.094c-4.339,0-15.712-7.982-15.712-18.083c0-3.949,3.517-8.105,7.856-8.105
		s7.594,2.86,7.856,5.244c0.262-2.384,3.517-5.244,7.856-5.244s7.856,4.155,7.856,8.105C45.681,44.112,34.308,52.094,29.969,52.094z
		"/>
	<rect x="23.625" display="inline" fill="#282829" width="12.75" height="10"/>
</g>
<g id="heal_copy_4">
	<path fill="#282829" d="M29.969,16.625c-16.569,0-30,9.71-30,21.688S13.4,60,29.969,60s30-9.71,30-21.688
		S46.537,16.625,29.969,16.625z M29.969,52.094c-4.339,0-15.713-7.982-15.713-18.083c0-3.949,3.517-8.105,7.856-8.105
		c4.339,0,7.594,2.86,7.856,5.244c0.262-2.384,3.517-5.244,7.856-5.244c4.339,0,7.856,4.155,7.856,8.105
		C45.681,44.112,34.308,52.094,29.969,52.094z"/>
	<path fill="#282829" d="M39.969,14.125c0-4.142-3.358-7.5-7.5-7.5h-5c-4.142,0-7.5,3.358-7.5,7.5l0,0c0,4.142,3.358,7.5,7.5,7.5h5
		C36.611,21.625,39.969,18.267,39.969,14.125L39.969,14.125z"/>
	<path fill="#282829" d="M42.516,9.125c0,1.381-0.934,2.5-2.086,2.5H19.57c-1.152,0-2.086-1.119-2.086-2.5l0,0
		c0-1.381,0.934-2.5,2.086-2.5H40.43C41.582,6.625,42.516,7.744,42.516,9.125L42.516,9.125z"/>
	<rect x="23.625" fill="#282829" width="12.75" height="10"/>
</g>
<g id="health" display="none">
	<path display="inline" d="M30,55.167c-8.284,0-30-15.24-30-34.526C0,13.1,6.716,5.167,15,5.167s14.5,5.462,15,10.013
		c0.5-4.551,6.716-10.013,15-10.013S60,13.1,60,20.641C60,39.927,38.284,55.167,30,55.167z"/>
</g>
<g id="attack" display="none">
	<g display="inline">
		<polygon points="47.855,38.564 38.564,47.855 4.274,13.564 0.838,0.838 13.564,4.274 		"/>
		<polygon points="48.234,25.958 57.223,24.447 55.712,33.436 33.436,55.712 24.447,57.223 25.958,48.234 		"/>
		<rect x="46.297" y="41.974" transform="matrix(0.7071 -0.7071 0.7071 0.7071 -20.9025 50.4632)" width="8.332" height="16.978"/>
	</g>
	<polygon display="inline" points="-22.245,44.32 -31.963,44.32 -31.963,8.452 -27.104,0 -22.245,8.452 	"/>
	<polygon display="inline" points="-15.454,37.926 -9.962,41.837 -15.454,45.748 -38.755,45.748 -44.246,41.837 -38.755,37.926 	"/>
	<rect x="-30.186" y="45.629" display="inline" width="6.163" height="12.557"/>
</g>
<g id="defence" display="none">
	<g id="defence_1_" display="inline">
		<path fill="#010101" d="M57.697,8.541c0,21.852-16.771,50.756-27.697,50.756S2.303,30.393,2.303,8.541
			c0-5.65,7.5,16.527,27.696-7.838C50.303,25.067,57.697,2.89,57.697,8.541z"/>
	</g>
</g>
</svg>
