<?xml version="1.0" encoding="utf-8"?>
<!-- Generator: Adobe Illustrator 19.2.1, SVG Export Plug-In . SVG Version: 6.00 Build 0)  -->
<svg version="1.1" id="heal_white" xmlns="http://www.w3.org/2000/svg" xmlns:xlink="http://www.w3.org/1999/xlink" x="0px" y="0px"
	 viewBox="0 0 60 60" enable-background="new 0 0 60 60" xml:space="preserve">
<path fill="#FFFFFF" d="M29.969,16.625c-16.569,0-30,9.71-30,21.688S13.4,60,29.969,60s30-9.71,30-21.688
	S46.537,16.625,29.969,16.625z M29.969,52.094c-4.339,0-15.713-7.982-15.713-18.083c0-3.949,3.517-8.105,7.856-8.105
	c4.339,0,7.594,2.86,7.856,5.244c0.262-2.384,3.517-5.244,7.856-5.244c4.339,0,7.856,4.155,7.856,8.105
	C45.681,44.112,34.308,52.094,29.969,52.094z"/>
<path fill="#FFFFFF" d="M39.969,14.125c0-4.142-3.358-7.5-7.5-7.5h-5c-4.142,0-7.5,3.358-7.5,7.5l0,0c0,4.142,3.358,7.5,7.5,7.5h5
	C36.611,21.625,39.969,18.267,39.969,14.125L39.969,14.125z"/>
<path fill="#FFFFFF" d="M42.516,9.125c0,1.381-0.934,2.5-2.086,2.5H19.57c-1.152,0-2.086-1.119-2.086-2.5l0,0
	c0-1.381,0.934-2.5,2.086-2.5H40.43C41.582,6.625,42.516,7.744,42.516,9.125L42.516,9.125z"/>
<rect x="23.625" fill="#FFFFFF" width="12.75" height="10"/>
</svg>
