<?xml version="1.0" encoding="utf-8"?>
<!-- Generator: Adobe Illustrator 17.0.0, SVG Export Plug-In . SVG Version: 6.00 Build 0)  -->
<!DOCTYPE svg PUBLIC "-//W3C//DTD SVG 1.1//EN" "http://www.w3.org/Graphics/SVG/1.1/DTD/svg11.dtd">
<svg version="1.1" id="new_game" xmlns="http://www.w3.org/2000/svg" xmlns:xlink="http://www.w3.org/1999/xlink" x="0px" y="0px"
	 width="60px" height="60px" viewBox="0 0 60 60" enable-background="new 0 0 60 60" xml:space="preserve">
<path fill="#FFFFFF" d="M24.979,10.381h0.005c-0.002-0.011-0.001-0.022-0.003-0.033C24.98,10.36,24.981,10.371,24.979,10.381z"/>
<path fill="#FFFFFF" d="M23.835,3.002c-3.667,0-6.64,3.906-6.64,8.724v6.402h5.525v-6.572c-0.331,0.113-0.711,0.177-1.115,0.177
	c-1.285,0-2.326-0.65-2.326-1.452s1.042-1.452,2.326-1.452c1.224,0,2.225,0.59,2.317,1.34c0.092-0.749,1.093-1.34,2.317-1.34
	c1.285,0,2.326,0.65,2.326,1.452s-1.042,1.452-2.326,1.452c-0.521,0-1-0.108-1.387-0.288v6.683h5.623v-6.402
	C30.475,6.908,27.502,3.002,23.835,3.002z"/>
<g id="defence_2_">
	<path fill="#FFFFFF" d="M47.034,20.736c0,8.834-6.78,20.519-11.197,20.519S24.64,29.57,24.64,20.736
		c0-2.284,3.032,6.681,11.197-3.169C44.044,27.417,47.034,18.451,47.034,20.736z"/>
</g>
<g>
	<polygon fill="#FFFFFF" points="20.052,32.761 16.363,36.449 2.75,22.836 1.387,17.784 6.439,19.148 	"/>
	<polygon fill="#FFFFFF" points="20.202,27.756 23.771,27.157 23.171,30.725 14.327,39.569 10.759,40.168 11.359,36.6 	"/>
	
		<rect x="19.433" y="34.115" transform="matrix(0.7071 -0.7071 0.7071 0.7071 -20.3296 25.8899)" fill="#FFFFFF" width="3.308" height="6.74"/>
</g>
<g>
	<path fill="#FFFFFF" d="M48.333,38c1.427,0,2.583,0.771,2.583,1.722v17.222c0,0.951-1.157,1.722-2.583,1.722l0,0
		c-1.427,0-2.583-0.771-2.583-1.722V39.722C45.75,38.771,46.907,38,48.333,38L48.333,38z"/>
	<path fill="#FFFFFF" d="M58.667,48.506c0,1.427-0.771,2.583-1.722,2.583H39.722c-0.951,0-1.722-1.157-1.722-2.583l0,0
		c0-1.427,0.771-2.583,1.722-2.583h17.222C57.896,45.922,58.667,47.079,58.667,48.506L58.667,48.506z"/>
</g>
</svg>
