<?xml version="1.0" encoding="utf-8"?>
<!-- Generator: Adobe Illustrator 17.0.0, SVG Export Plug-In . SVG Version: 6.00 Build 0)  -->
<!DOCTYPE svg PUBLIC "-//W3C//DTD SVG 1.1//EN" "http://www.w3.org/Graphics/SVG/1.1/DTD/svg11.dtd">
<svg version="1.1" id="load_game" xmlns="http://www.w3.org/2000/svg" xmlns:xlink="http://www.w3.org/1999/xlink" x="0px" y="0px"
	 width="60px" height="60px" viewBox="0 0 60 60" enable-background="new 0 0 60 60" xml:space="preserve">
<path fill="#FFFFFF" d="M11.217,20.971l-7.97,30.196H51.03L59,20.971H11.217z M31.297,29.517c0-3.139,1.937-5.683,4.325-5.683
	c2.389,0,4.325,2.544,4.325,5.683v4.17h-3.662v-4.353c0.253,0.117,0.565,0.188,0.904,0.188c0.837,0,1.515-0.424,1.515-0.946
	s-0.678-0.946-1.515-0.946c-0.797,0-1.449,0.385-1.51,0.873c-0.06-0.488-0.712-0.873-1.51-0.873c-0.837,0-1.515,0.424-1.515,0.946
	s0.678,0.946,1.515,0.946c0.263,0,0.51-0.042,0.726-0.116v4.281h-3.599V29.517z M34.623,48.61l-3.075-3.075l-2.118,2.118
	l-2.324,0.391l0.391-2.324l1.679-1.679l-7.286-7.286L21,33.463l3.291,0.888l7.286,7.286l1.679-1.679l2.324-0.391l-0.391,2.324
	l-2.119,2.119l3.075,3.075L34.623,48.61z M43.441,48.751c-2.877,0-7.294-7.612-7.294-13.366c0-1.488,1.975,4.352,7.293-2.064
	c5.347,6.416,7.294,0.576,7.294,2.064C50.734,41.14,46.318,48.751,43.441,48.751z"/>
<rect x="0.667" y="9.647" fill="#FFFFFF" width="18.186" height="4.289"/>
<path fill="#FFFFFF" d="M36.368,28.641h0.003c-0.001-0.007-0.001-0.014-0.002-0.021C36.369,28.627,36.369,28.634,36.368,28.641z"/>
<polygon fill="#FFFFFF" points="0.667,13.936 0.667,49.966 0.835,49.966 9.077,18.74 50.078,18.74 50.078,13.936 "/>
</svg>
