<?xml version="1.0" encoding="utf-8"?>
<!-- Generator: Adobe Illustrator 17.0.0, SVG Export Plug-In . SVG Version: 6.00 Build 0)  -->
<!DOCTYPE svg PUBLIC "-//W3C//DTD SVG 1.1//EN" "http://www.w3.org/Graphics/SVG/1.1/DTD/svg11.dtd">
<svg version="1.1" xmlns="http://www.w3.org/2000/svg" xmlns:xlink="http://www.w3.org/1999/xlink" x="0px" y="0px" width="60px"
	 height="60px" viewBox="0 0 60 60" enable-background="new 0 0 60 60" xml:space="preserve">
<g id="Layer_1">
</g>
<g id="compass_copy">
	<path d="M31.728,15.107L30,9.957l-1.728,5.15C28.84,15.042,29.415,15,30,15S31.16,15.042,31.728,15.107z"/>
	<path d="M28.284,44.895L30,50.01l1.716-5.115C31.152,44.959,30.581,45,30,45S28.848,44.959,28.284,44.895z"/>
	<path d="M44.896,31.705l5.13-1.721l-5.135-1.723C44.957,28.832,45,29.411,45,30C45,30.577,44.96,31.145,44.896,31.705z"/>
	<path d="M15.109,28.26l-5.135,1.723l5.13,1.721C15.04,31.145,15,30.577,15,30C15,29.411,15.043,28.832,15.109,28.26z"/>
	<g>
		<path d="M30,18c6.617,0,12,5.383,12,12s-5.383,12-12,12s-12-5.383-12-12S23.383,18,30,18 M30,15c-8.284,0-15,6.716-15,15
			s6.716,15,15,15s15-6.716,15-15S38.284,15,30,15L30,15z"/>
	</g>
</g>
<g id="Layer_23">
	<g>
		<path d="M30,5c13.785,0,25,11.215,25,25S43.785,55,30,55S5,43.785,5,30S16.215,5,30,5 M30,0C13.431,0,0,13.431,0,30
			s13.431,30,30,30s30-13.431,30-30S46.569,0,30,0L30,0z"/>
	</g>
</g>
<g id="Layer_22">
	<g>
		<g>
			<polygon points="18.949,22.019 15.863,15.815 22.067,18.902 21.363,21.315 			"/>
			<polygon points="38.075,41.145 38.778,38.731 41.192,38.027 44.279,44.231 			"/>
		</g>
		<g>
			<polygon points="21.977,41.234 15.774,44.32 18.86,38.116 21.274,38.82 			"/>
			<polygon points="41.103,22.108 38.689,21.404 37.986,18.991 44.189,15.904 			"/>
		</g>
	</g>
</g>
<g id="Layer_21">
	<polygon points="25.226,25.254 47.617,12.367 34.73,34.757 12.339,47.644 	"/>
</g>
</svg>
