<?xml version="1.0" encoding="utf-8"?>
<!-- Generator: Adobe Illustrator 19.2.1, SVG Export Plug-In . SVG Version: 6.00 Build 0)  -->
<svg version="1.1" id="armor_white" xmlns="http://www.w3.org/2000/svg" xmlns:xlink="http://www.w3.org/1999/xlink" x="0px"
	 y="0px" viewBox="0 0 60 60" enable-background="new 0 0 60 60" xml:space="preserve">
<path fill="#FFFFFF" d="M30.075,9c3.753,0,7.029-2.007,8.84-5h4.326c0.133,1.525,0.375,3.084,0.763,4.664
	c1.942,7.904,6.632,13.943,11.672,15.824c-2.493,9.581-6.865,23.973-11.029,31.68C41.111,54.828,35.313,54,30.075,54h-0.149
	c-5.238,0-11.036,0.828-14.571,2.169c-4.165-7.708-8.536-22.099-11.029-31.68c5.039-1.881,9.729-7.921,11.672-15.824
	c0.388-1.58,0.629-3.139,0.763-4.664h4.326c1.811,2.993,5.087,5,8.84,5H30.075z"/>
</svg>
